<svg xmlns="http://www.w3.org/2000/svg" width="256" height="256" fill="none" viewBox="0 0 256 256" id="github">
  <path fill="url(#paint0_linear_533_5358)" fill-rule="evenodd" d="M58.7042 58.7042C48.8797 68.5258 45.3321 82.2477 48.0614 94.8868C37.1932 101.897 30 114.109 30 128C30 141.892 37.1942 154.103 48.0614 161.112C45.3331 173.751 48.8807 187.473 58.7042 197.297C68.5267 207.119 82.2487 210.667 94.8878 207.94C101.897 218.806 114.109 226 128 226C141.892 226 154.103 218.806 161.112 207.94C173.751 210.667 187.473 207.119 197.297 197.297C207.119 187.473 210.667 173.751 207.94 161.112C218.806 154.103 226 141.892 226 128C226 114.109 218.806 101.897 207.94 94.8878C210.667 82.2487 207.119 68.5258 197.297 58.7032C187.473 48.8807 173.751 45.3331 161.112 48.0604C154.103 37.1942 141.892 30 128 30C114.109 30 101.897 37.1942 94.8878 48.0614C82.2487 45.3331 68.5267 48.8807 58.7042 58.7042Z" clip-rule="evenodd"></path>
  <path fill="url(#paint1_linear_533_5358)" fill-rule="evenodd" d="M48.0614 161.112C37.1942 154.103 30 141.892 30 128C30 114.109 37.1932 101.897 48.0614 94.8868C45.3321 82.2477 48.8797 68.5258 58.7042 58.7042C68.5267 48.8807 82.2487 45.3331 94.8878 48.0614C101.897 37.1942 114.109 30 128 30C141.892 30 154.103 37.1942 161.112 48.0604C173.751 45.3331 187.473 48.8807 197.297 58.7032C207.119 68.5258 210.667 82.2487 207.94 94.8878C218.806 101.897 226 114.109 226 128C226 141.892 218.806 154.103 207.94 161.112C210.667 173.751 207.119 187.473 197.297 197.297C187.473 207.119 173.751 210.667 161.112 207.94C154.103 218.806 141.892 226 128 226C114.109 226 101.897 218.806 94.8878 207.94C82.2487 210.667 68.5267 207.119 58.7042 197.297C48.8807 187.473 45.3331 173.751 48.0614 161.112Z" clip-rule="evenodd"></path>
  <path fill="#1F2328" d="M128.001 61.333C164.834 61.333 194.667 91.1663 194.667 128C194.664 141.968 190.28 155.584 182.133 166.93C173.985 178.276 162.485 186.782 149.251 191.25C145.917 191.916 144.667 189.833 144.667 188.083C144.667 185.833 144.751 178.666 144.751 169.75C144.751 163.5 142.667 159.5 140.251 157.416C155.084 155.75 170.667 150.083 170.667 124.5C170.667 117.166 168.084 111.25 163.834 106.583C164.501 104.916 166.834 98.083 163.167 88.9163C163.167 88.9163 157.584 87.083 144.834 95.7497C139.501 94.2497 133.834 93.4997 128.167 93.4997C122.501 93.4997 116.834 94.2497 111.501 95.7497C98.7507 87.1663 93.1673 88.9163 93.1673 88.9163C89.5007 98.083 91.834 104.916 92.5007 106.583C88.2507 111.25 85.6673 117.25 85.6673 124.5C85.6673 150 101.167 155.75 116.001 157.416C114.084 159.083 112.334 162 111.751 166.333C107.917 168.083 98.334 170.916 92.334 160.833C91.084 158.833 87.334 153.916 82.084 154C76.5007 154.083 79.834 157.166 82.1673 158.416C85.0007 160 88.2507 165.916 89.0007 167.833C90.334 171.583 94.6673 178.75 111.417 175.666C111.417 181.25 111.501 186.5 111.501 188.083C111.501 189.833 110.251 191.833 106.917 191.25C93.6393 186.83 82.0901 178.341 73.9081 166.988C65.726 155.635 61.3266 141.994 61.334 128C61.334 91.1663 91.1673 61.333 128.001 61.333Z"></path>
  <defs>
    <linearGradient id="paint0_linear_533_5358" x1="226" x2="30" y1="226" y2="30" gradientUnits="userSpaceOnUse">
      <stop stop-color="#ACCCFF" stop-opacity="0"></stop>
      <stop offset="1" stop-color="#fff"></stop>
    </linearGradient>
    <linearGradient id="paint1_linear_533_5358" x1="226" x2="30" y1="226" y2="30" gradientUnits="userSpaceOnUse">
      <stop stop-color="#ACCCFF" stop-opacity="0"></stop>
      <stop offset="1" stop-color="#fff"></stop>
    </linearGradient>
  </defs>
</svg>
