<svg xmlns="http://www.w3.org/2000/svg" id="iot-protocols" viewBox="0 0 64 64">
  <path d="m34.53,22.61c.2.26.49.39.8.39.21,0,.42-.07.61-.21.44-.33.52-.96.19-1.4-.97-1.27-2.51-2.03-4.12-2.03s-3.15.76-4.12,2.03c-.33.44-.25,1.07.19,1.4.44.34,1.07.25,1.4-.19.6-.79,1.52-1.24,2.53-1.24s1.93.45,2.53,1.24Z"></path>
  <path d="m37.87,20.05c.2.25.49.39.79.39.21,0,.43-.07.61-.21.44-.34.52-.97.18-1.4-1.8-2.31-4.51-3.64-7.45-3.64s-5.65,1.33-7.45,3.64c-.34.44-.26,1.06.18,1.4.44.34,1.07.26,1.4-.18,1.41-1.82,3.55-2.87,5.87-2.87s4.45,1.04,5.87,2.87Z"></path>
  <path d="m41.21,17.5c.2.25.49.39.79.39.21,0,.43-.07.61-.21.44-.34.51-.97.17-1.4-2.61-3.35-6.54-5.27-10.79-5.27s-8.18,1.92-10.79,5.27c-.34.44-.26,1.06.17,1.4.43.34,1.06.26,1.4-.17,2.23-2.86,5.58-4.5,9.21-4.5s6.98,1.64,9.21,4.5Z"></path>
  <path d="m57,42c-1.86,0-3.41,1.28-3.86,3h-11.14v-2c0-.55-.45-1-1-1h-5v-5c0-.55-.45-1-1-1h-2v-4.05c7.8-.52,14-7.02,14-14.95s-6.73-15-15-15-15,6.73-15,15,6.2,14.43,14,14.95v4.05h-2c-.55,0-1,.45-1,1v5h-5c-.55,0-1,.45-1,1v2h-11.14c-.45-1.72-2-3-3.86-3-2.21,0-4,1.79-4,4s1.79,4,4,4c1.86,0,3.41-1.28,3.86-3h11.14v2c0,.55.45,1,1,1h3v2.65l-3.48,4.35h-4.66c-.45-1.72-2-3-3.86-3-2.21,0-4,1.79-4,4s1.79,4,4,4c1.86,0,3.41-1.28,3.86-3h5.14c.3,0,.59-.14.78-.38l4-5c.14-.18.22-.4.22-.62v-3h3v4.14c-1.72.45-3,2-3,3.86,0,2.21,1.79,4,4,4s4-1.79,4-4c0-1.86-1.28-3.41-3-3.86v-4.14h3v3c0,.23.08.45.22.62l4,5c.19.24.48.38.78.38h5.14c.45,1.72,2,3,3.86,3,2.21,0,4-1.79,4-4s-1.79-4-4-4c-1.86,0-3.41,1.28-3.86,3h-4.66l-3.48-4.35v-2.65h3c.55,0,1-.45,1-1v-2h11.14c.45,1.72,2,3,3.86,3,2.21,0,4-1.79,4-4s-1.79-4-4-4Zm-50,6c-1.1,0-2-.9-2-2s.9-2,2-2,2,.9,2,2-.9,2-2,2Zm7,12c-1.1,0-2-.9-2-2s.9-2,2-2,2,.9,2,2-.9,2-2,2Zm36-4c1.1,0,2,.9,2,2s-.9,2-2,2-2-.9-2-2,.9-2,2-2ZM19,17c0-7.17,5.83-13,13-13s13,5.83,13,13-5.83,13-13,13-13-5.83-13-13Zm15,41c0,1.1-.9,2-2,2s-2-.9-2-2,.9-2,2-2,2,.9,2,2Zm6-10h-16v-4h5c.55,0,1-.45,1-1v-5h4v5c0,.55.45,1,1,1h5v4Zm17,0c-1.1,0-2-.9-2-2s.9-2,2-2,2,.9,2,2-.9,2-2,2Z"></path>
</svg>
