<svg xmlns="http://www.w3.org/2000/svg" width="256" height="256" fill="none" viewBox="0 0 256 256" id="linkedin">
  <path fill="url(#paint0_linear_533_5392)" fill-rule="evenodd" d="M58.7042 58.7042C48.8797 68.5258 45.3321 82.2477 48.0614 94.8868C37.1932 101.897 30 114.109 30 128C30 141.892 37.1942 154.103 48.0614 161.112C45.3331 173.751 48.8807 187.473 58.7042 197.297C68.5267 207.119 82.2487 210.667 94.8878 207.94C101.897 218.806 114.109 226 128 226C141.892 226 154.103 218.806 161.112 207.94C173.751 210.667 187.473 207.119 197.297 197.297C207.119 187.473 210.667 173.751 207.94 161.112C218.806 154.103 226 141.892 226 128C226 114.109 218.806 101.897 207.94 94.8878C210.667 82.2487 207.119 68.5258 197.297 58.7032C187.473 48.8807 173.751 45.3331 161.112 48.0604C154.103 37.1942 141.892 30 128 30C114.109 30 101.897 37.1942 94.8878 48.0614C82.2487 45.3331 68.5267 48.8807 58.7042 58.7042Z" clip-rule="evenodd"></path>
  <path fill="url(#paint1_linear_533_5392)" fill-rule="evenodd" d="M48.0614 161.112C37.1942 154.103 30 141.892 30 128C30 114.109 37.1932 101.897 48.0614 94.8868C45.3321 82.2477 48.8797 68.5258 58.7042 58.7042C68.5267 48.8807 82.2487 45.3331 94.8878 48.0614C101.897 37.1942 114.109 30 128 30C141.892 30 154.103 37.1942 161.112 48.0604C173.751 45.3331 187.473 48.8807 197.297 58.7032C207.119 68.5258 210.667 82.2487 207.94 94.8878C218.806 101.897 226 114.109 226 128C226 141.892 218.806 154.103 207.94 161.112C210.667 173.751 207.119 187.473 197.297 197.297C187.473 207.119 173.751 210.667 161.112 207.94C154.103 218.806 141.892 226 128 226C114.109 226 101.897 218.806 94.8878 207.94C82.2487 210.667 68.5267 207.119 58.7042 197.297C48.8807 187.473 45.3331 173.751 48.0614 161.112Z" clip-rule="evenodd"></path>
  <path fill="#0A66C2" d="M170.244 170.247H152.464V142.402C152.464 135.762 152.345 127.215 143.216 127.215C133.955 127.215 132.538 134.449 132.538 141.919V170.245H114.759V112.985H131.827V120.81H132.066C133.774 117.889 136.243 115.487 139.209 113.858C142.174 112.229 145.526 111.435 148.908 111.56C166.929 111.56 170.251 123.414 170.251 138.835L170.244 170.247ZM94.6962 105.158C88.9976 105.159 84.3771 100.54 84.3762 94.8414C84.3752 89.1428 88.9938 84.5223 94.6924 84.5214C100.391 84.52 105.011 89.139 105.012 94.8376C105.013 97.5742 103.926 100.199 101.992 102.134C100.057 104.07 97.4328 105.157 94.6962 105.158ZM103.586 170.248H85.7876V112.985H103.586V170.247L103.586 170.248ZM179.108 68.0087H76.8532C72.0204 67.9544 68.0571 71.8258 67.998 76.6586V179.34C68.0552 184.175 72.018 188.05 76.8527 187.999H179.108C183.953 188.059 187.931 184.184 187.998 179.34V76.6506C187.929 71.8084 183.95 67.9375 179.108 68.0008"></path>
  <defs>
    <linearGradient id="paint0_linear_533_5392" x1="226" x2="30" y1="226" y2="30" gradientUnits="userSpaceOnUse">
      <stop stop-color="#ACCCFF" stop-opacity="0"></stop>
      <stop offset="1" stop-color="#fff"></stop>
    </linearGradient>
    <linearGradient id="paint1_linear_533_5392" x1="226" x2="30" y1="226" y2="30" gradientUnits="userSpaceOnUse">
      <stop stop-color="#ACCCFF" stop-opacity="0"></stop>
      <stop offset="1" stop-color="#fff"></stop>
    </linearGradient>
  </defs>
</svg>
